<svg width="300" height="119" viewBox="0 0 300 119" fill="none" xmlns="http://www.w3.org/2000/svg">
<path d="M211.239 27.7745C204.06 29.2443 197.863 27.2206 191.709 24.8136C188.547 23.5781 185.299 22.6835 182.115 21.3415C180.192 20.5321 179.979 21.3415 179.979 22.8965C179.979 23.7486 179.979 24.6006 179.979 25.4526C179.979 28.0727 179.017 28.7543 176.432 28.1579C175.449 27.9236 175.534 27.3058 175.534 26.6455C175.534 18.3806 175.534 10.1371 175.534 1.89353C175.534 0.551555 176.154 0.381148 177.244 0.381148C187.479 0.381148 197.735 0.381148 207.97 0.381148C208.697 0.378227 209.418 0.519957 210.09 0.798048C210.762 1.07614 211.371 1.48499 211.882 2.00071C212.394 2.51642 212.797 3.12863 213.068 3.80151C213.339 4.47438 213.473 5.19441 213.461 5.91945C213.461 8.90162 213.461 11.8838 213.461 14.8447C213.484 15.5292 213.362 16.2107 213.105 16.8457C212.848 17.4807 212.46 18.0552 211.967 18.5324C211.475 19.0096 210.887 19.379 210.243 19.6169C209.599 19.8549 208.912 19.9562 208.226 19.9143C205.684 19.9143 203.12 19.9143 200.555 19.9143H192.927L192.756 20.3404L211.239 27.7745ZM193.974 16.3783C197.97 16.3783 201.966 16.3783 205.961 16.3783C208.718 16.3783 209.38 15.6541 209.423 12.8636C209.423 11.2661 209.423 9.64716 209.423 8.02827C209.492 7.58258 209.457 7.12693 209.32 6.69707C209.183 6.26722 208.948 5.87486 208.633 5.55082C208.319 5.22678 207.933 4.97987 207.506 4.82946C207.08 4.67906 206.624 4.62926 206.175 4.68398C197.991 4.68398 189.829 4.68398 181.667 4.68398C180.449 4.68398 180.021 5.0461 180.043 6.28157C180.043 8.98682 180.192 11.7134 180.043 14.4186C180.043 16.2079 180.662 16.5487 182.179 16.5487C186.154 16.3144 190.064 16.3783 193.974 16.3783Z" fill="#273D74"/>
<path d="M284.658 10.0733L281.09 19.3606C280.769 20.1913 281.218 20.8517 281.539 21.4907L284.765 28.1154C282.842 28.1154 281.24 28.1154 279.658 28.1154C279.042 28.232 278.405 28.1095 277.877 27.7729C277.348 27.4363 276.969 26.9111 276.816 26.3048C274.68 21.4694 272.543 16.6979 270.406 11.9052C270.193 11.4578 269.958 11.0318 269.509 10.1585C267.372 15.4838 265.577 20.4256 263.675 25.3675C263.419 26.0918 263.163 26.816 262.864 27.4976C262.564 28.1793 261.667 28.2006 261.069 28.0302C260.086 27.7533 260.748 27.0929 260.94 26.603C264.274 17.9121 267.607 9.22122 271.133 0.12561L279.68 17.337C281.987 11.4365 284.081 6.06864 286.389 0.12561C291.026 9.62594 295.406 18.6789 300 28.0941C297.671 28.0941 295.727 28.0941 293.804 28.0941C292.607 28.0941 292.5 27.1781 292.158 26.4539L284.658 10.0733Z" fill="#283E75"/>
<path d="M150.171 15.505C154.081 15.505 158.013 15.3772 161.923 15.505C164.06 15.6115 164.466 14.8446 164.402 12.9275C164.252 9.28503 164.402 5.62123 164.402 1.97873C164.402 -0.151392 165.556 0.338527 166.709 0.338527C167.863 0.338527 168.996 0.0616131 168.974 2.02132C168.86 10.1868 168.86 18.338 168.974 26.4751C168.974 28.6052 167.799 28.094 166.645 28.1153C165.492 28.1366 164.124 28.3709 164.509 26.4325V26.1769C164.509 24.0468 165.256 20.9794 164.124 19.7865C162.692 18.2528 159.637 19.3179 157.286 19.2966C150.876 19.2966 144.68 19.2966 138.376 19.2966C136.709 19.2966 136.09 19.7013 136.239 21.4267C136.389 23.1521 136.09 24.1746 136.239 25.4952C136.667 28.0727 135.385 28.3709 133.269 28.2857C131.838 28.2857 131.624 27.668 131.624 26.4538C131.624 18.2102 131.624 9.96667 131.624 1.72311C131.624 -0.215301 132.692 0.0190056 133.889 0.0190056C135.086 0.0190056 136.261 -0.300499 136.197 1.68051C136.197 5.57863 136.197 9.49805 136.197 13.3962C136.197 15.2494 136.774 15.6541 138.504 15.5263C142.329 15.4198 146.239 15.505 150.171 15.505Z" fill="#2E4379"/>
<path d="M150.107 52.633C148.734 50.3569 146.872 48.4124 144.655 46.9391C142.438 45.4659 139.922 44.5006 137.286 44.1126C135.47 43.7717 135.427 42.9197 135.812 41.4499C136.621 38.3586 138.437 35.6223 140.973 33.6693C143.509 31.7163 146.624 30.6569 149.829 30.6569C153.034 30.6569 156.148 31.7163 158.684 33.6693C161.221 35.6223 163.036 38.3586 163.846 41.4499C164.337 43.2392 163.846 43.8143 162.179 44.1765C159.67 44.6233 157.289 45.6117 155.204 47.0725C153.118 48.5334 151.379 50.4312 150.107 52.633Z" fill="#53A7DC"/>
<path d="M148.419 67.842C148.419 71.1437 148.312 74.4667 148.419 77.7684C148.419 79.6642 147.756 79.8985 146.282 79.4725C143.202 78.7011 140.464 76.9349 138.497 74.4495C136.529 71.964 135.442 68.8991 135.406 65.7332C135.235 59.7902 135.406 53.8471 135.406 47.9041C135.406 46.3704 135.833 46.0296 137.351 46.3704C143.056 47.6272 148.846 51.4188 148.333 59.4493C148.162 62.2398 148.333 65.0303 148.333 67.842H148.419Z" fill="#395CA5"/>
<path d="M152.009 67.4373C152.009 64.1143 152.009 60.8126 152.009 57.4896C152.283 54.6311 153.545 51.9564 155.58 49.924C157.615 47.8915 160.295 46.6277 163.162 46.3491C164.124 46.3491 164.295 46.6686 164.295 47.4994C164.295 54.1241 164.53 60.77 164.167 67.3734C163.85 70.1403 162.717 72.7511 160.91 74.8748C159.103 76.9985 156.704 78.5394 154.017 79.3021C152.201 79.8559 151.88 79.3021 151.88 77.6406C152.009 74.2324 151.88 70.8455 151.88 67.4373H152.009Z" fill="#395CA5"/>
<path d="M18.4615 0.232056L37.1154 27.9236H0C6.13248 18.7002 12.1795 9.71109 18.4615 0.232056ZM18.4615 7.55965L7.37179 24.3876C14.4444 24.3876 21.0043 24.3876 27.5427 24.3876C29.2521 24.3876 29.4658 24.0042 28.5043 22.5983C25.235 17.7203 21.9658 12.7571 18.5043 7.58096L18.4615 7.55965Z" fill="#253C73"/>
<path d="M124.274 28.0727H86.8809L105.471 0.189453L124.274 28.0727ZM94.3595 24.3876H114.595C115.77 24.3876 116.731 24.3876 115.684 22.8113C112.351 17.8694 109.103 12.8424 105.513 7.58097L94.3595 24.3876Z" fill="#253C73"/>
<path d="M217.521 27.9236L235.171 1.42492C235.684 0.679382 236.047 0.189456 236.774 1.27582C242.671 10.0732 248.611 18.8493 254.744 27.9236H217.521ZM224.936 24.3876C232.158 24.3876 238.804 24.3876 245.449 24.3876C247.009 24.3876 246.945 23.8764 246.218 22.79C243.098 18.1464 240 13.4601 236.902 8.77383C236.41 8.02829 235.983 7.55967 235.278 8.64603C231.945 13.7796 228.59 18.8493 224.936 24.3876Z" fill="#253C73"/>
<path d="M135.384 34.676C134.188 39.5966 131.325 40.5977 126.837 40.4912C111.517 40.1717 96.1751 40.3421 80.8332 40.4912C79.6029 40.6411 78.3564 40.4007 77.2709 39.8042C76.1854 39.2077 75.316 38.2854 74.7862 37.1683C74.0597 35.6772 74.017 34.7186 76.2606 34.7399C82.9913 34.8677 89.7221 34.7399 96.4529 34.7399H135.384V34.676Z" fill="#DC9451"/>
<path d="M164.188 34.676H199.893C207.65 34.676 215.427 34.676 223.184 34.676C225.32 34.676 225.705 35.4216 224.829 37.2109C224.302 38.2843 223.453 39.1682 222.401 39.7406C221.348 40.3129 220.144 40.5454 218.953 40.4061H178.504C175.427 40.4061 172.35 40.4061 169.295 40.4061C167.521 40.4061 166.41 40.0865 165.919 38.2759C165.466 37.0203 164.886 35.8141 164.188 34.676Z" fill="#DC9451"/>
<path d="M286.645 65.0942C282.987 68.1822 278.7 70.4424 274.081 71.7189C273.837 71.7823 273.581 71.7904 273.334 71.7425C273.086 71.6945 272.852 71.5919 272.649 71.4419L245.961 56.7228C247.906 55.3169 249.679 54.0815 251.41 52.7608C252.179 52.1857 252.82 52.5052 253.547 52.7608L286.645 65.0942Z" fill="#253C73"/>
<path d="M53.8035 56.7655L27.201 71.4846C26.8756 71.6595 26.5158 71.7615 26.1468 71.7836C25.7777 71.8056 25.4083 71.7472 25.0642 71.6124C20.8268 70.365 16.8721 68.3106 13.4189 65.5629C13.5685 64.6469 14.3377 64.7534 14.8292 64.5617C25.0215 60.7275 35.2352 56.9572 45.4275 53.0804C46.0501 52.7469 46.7635 52.6208 47.4632 52.7204C48.1629 52.8201 48.8123 53.1403 49.3164 53.6342C50.7417 54.7748 52.2406 55.8208 53.8035 56.7655Z" fill="#253C73"/>
<path d="M42.3075 46.903C43.8443 47.8338 45.111 49.148 45.9827 50.7159C45.9827 51.3336 45.299 51.3762 44.8502 51.5466C34.1665 55.537 23.4827 59.5204 12.799 63.4966C12.4337 63.7043 12.0068 63.7776 11.5929 63.7036C11.1789 63.6297 10.8042 63.4132 10.534 63.0919C8.49955 61.0262 6.69426 58.748 5.1494 56.2968C4.61521 55.4234 4.42291 54.8696 5.79043 54.5927C17.685 52.0791 29.601 49.5443 41.5383 46.9882L42.3075 46.903Z" fill="#253C73"/>
<path d="M253.547 50.9716C256.624 46.7113 256.603 46.7113 261.603 47.7764C272.158 50.0556 282.714 52.3348 293.312 54.4863C295.171 54.8697 295.193 55.4448 294.252 56.6164L293.975 57.0424C289.338 64.3274 289.338 64.3061 281.411 61.3026C272.992 58.1501 264.53 55.0401 256.09 51.8875L253.547 50.9716Z" fill="#253C73"/>
<path d="M4.50876 53.1442C2.73525 53.1442 2.88483 51.6105 2.54295 50.6733C1.92329 48.884 0.790811 47.1799 1.36773 45.1563C1.36773 44.9858 2.13696 44.9645 2.54295 44.9219C14.7509 43.5019 26.9446 42.1599 39.1241 40.896C40.4489 40.7469 42.607 43.7291 42.0515 44.9006C41.8378 45.3693 41.3891 45.3267 40.9831 45.4119L5.27799 53.0377L4.50876 53.1442Z" fill="#273D74"/>
<path d="M260.406 40.9173C272.699 42.2522 284.978 43.58 297.243 44.9007C298.312 44.9007 298.846 45.3054 298.483 46.4556C298.483 46.6048 298.483 46.7965 298.483 46.9456C297.094 53.3359 296.923 53.5064 290.406 52.1218C280.164 49.9491 269.936 47.7621 259.722 45.561C259.017 45.3906 257.265 45.8166 257.842 44.3894C258.419 42.9623 257.735 40.6404 260.406 40.9173Z" fill="#273D74"/>
<path d="M279.487 34.676C285.534 34.676 291.581 34.676 297.628 34.676C299.017 34.676 299.637 34.9742 299.487 36.4653C299.338 37.9564 299.487 39.7031 299.359 41.3007C299.231 42.8983 298.867 43.5373 297.073 43.4308C285.092 42.0107 273.084 40.6759 261.047 39.4262C259.722 39.2984 259.231 38.8937 259.508 37.573C259.786 36.2523 258.974 34.7612 261.346 34.8038C267.393 34.8038 273.44 34.8038 279.487 34.8038V34.676Z" fill="#233A72"/>
<path d="M20.1712 34.6974C26.1327 34.6974 32.0943 34.6974 38.0558 34.6974C40.6413 34.6974 39.9789 36.4228 40.1925 37.7435C40.6199 39.6393 39.1669 39.2132 38.1626 39.341C26.4105 40.6404 14.6584 41.8759 2.92761 43.2818C0.790859 43.5161 0.342142 43.0049 0.278039 41.0025C0.0643642 34.6122 0.000260875 34.6122 6.30368 34.6122H20.0857L20.1712 34.6974Z" fill="#233A72"/>
<path d="M42.4146 14.2908C42.4146 10.201 42.5214 6.11118 42.4146 2.04265C42.4146 0.253349 43.1838 0.146833 44.5513 0.168134C45.9188 0.189435 46.9445 0.168146 46.9231 2.12786C46.7949 8.75253 46.9231 15.3985 46.8163 22.0232C46.8163 23.9616 47.3932 24.5154 49.2949 24.4089C52.1795 24.2598 55.1069 24.4089 57.9915 24.4089C59.6368 24.4089 59.5086 25.2609 59.4872 26.326C59.4658 27.3911 59.7222 28.307 58.0342 28.2857C53.3547 28.1792 48.6539 28.2857 43.953 28.2857C42.6496 28.2857 42.4359 27.7745 42.4359 26.6455C42.4573 22.4918 42.4146 18.3594 42.4146 14.2908Z" fill="#2A4076"/>
<path d="M239.06 58.2565C239.295 58.2565 239.594 58.5547 239.744 58.4908C243.035 56.8932 245.663 58.4908 248.462 60.0671C255.663 64.1782 262.97 68.1189 270.171 72.4218C264.829 72.5922 259.488 74.5519 254.381 70.739C248.825 66.4787 242.564 63.0918 237.03 58.7038C237.735 58.7038 238.611 59.1298 239.167 58.1926L239.06 58.2565Z" fill="#273D74"/>
<path d="M62.3717 58.7038C62.1794 59.6837 61.2819 59.9393 60.5982 60.3866C54.8289 64.2848 49.0383 68.1403 43.2905 72.0597C42.3444 72.7701 41.1838 73.1383 39.9999 73.1035C36.4732 73.2273 32.9423 73.0563 29.4443 72.5922C29.8717 71.6976 30.6195 71.5059 31.2178 71.165C38.4187 67.1817 45.6409 63.2836 52.799 59.2151C53.6652 58.5523 54.6836 58.1156 55.762 57.9445C56.8403 57.7734 57.9444 57.8733 58.9742 58.2352C59.5084 58.4695 60.2349 58.9382 60.8546 58.2352C61.1537 59.0873 61.8802 58.6399 62.4358 58.7464L62.3717 58.7038Z" fill="#273D74"/>
<path d="M72.6495 59.1725C67.8419 63.9653 62.4359 68.0551 57.3504 72.5283C57.0363 72.8099 56.6388 72.9819 56.2179 73.0183C52.6487 73.1292 49.0763 72.9583 45.5342 72.507L66.1752 58.7039C68.3099 59.0937 70.4808 59.2509 72.6495 59.1725Z" fill="#253C73"/>
<path d="M233.397 58.7039L254.252 72.4644L254.102 73.0609C249.166 72.3366 243.867 74.8289 239.38 70.1213C235.598 66.138 230.833 63.0706 227.008 59.1512C229.148 59.3019 231.299 59.1513 233.397 58.7039Z" fill="#253C73"/>
<path d="M80.9617 41.6629C72.9275 46.0723 64.8933 50.5029 56.8591 54.8696C55.6198 55.5513 51.0899 53.1656 50.7694 51.781C50.6198 51.0141 51.2395 50.9928 51.6668 50.8224C60.2138 47.5846 68.7608 44.4321 77.4147 41.1091C78.7181 40.7043 79.7224 41.6629 80.9617 41.6629Z" fill="#46A6DD"/>
<path d="M218.654 41.6629C219.487 41.303 220.388 41.128 221.296 41.15C222.204 41.1721 223.096 41.3907 223.91 41.7907C231.838 44.8581 239.765 47.8616 247.756 50.7798C249.53 51.4402 249.188 51.9088 248.077 52.9099C244.701 55.8495 244.487 55.9134 240.598 53.7833L220.021 42.5363C219.594 42.2381 219.188 41.9611 218.654 41.6629Z" fill="#46A6DD"/>
<path d="M215.406 59.1938C219.33 62.373 223.075 65.765 226.624 69.3545L230.492 72.9544C226.923 72.9544 224.081 72.9544 221.261 72.9544C221.055 72.9373 220.854 72.8795 220.671 72.7844C220.488 72.6893 220.325 72.5589 220.193 72.4006C216.859 68.1403 212.97 64.1783 210.043 59.6199L215.406 59.1938Z" fill="#253C73"/>
<path d="M237.03 58.7038L210.833 41.535C212.62 41.0851 214.512 41.3207 216.133 42.1954C224.68 46.9242 233.227 51.5679 241.774 56.2542C241.154 57.5322 239.466 57.0423 238.953 58.2565C238.163 58.0648 237.393 57.9796 236.816 58.7677L237.03 58.7038Z" fill="#46A6DD"/>
<path d="M89.6586 60.067C86.4962 63.9438 83.2483 67.8207 80.1927 71.7401C79.8878 72.1863 79.4708 72.545 78.9834 72.7805C78.496 73.0159 77.9552 73.1199 77.415 73.082C74.8936 73.082 72.3936 73.082 69.1885 73.082C74.7227 68.268 79.0175 63.1344 84.4021 59.1724C86.1806 59.2887 87.9421 59.5885 89.6586 60.067Z" fill="#273D74"/>
<path d="M60.8548 58.2565C60.2352 57.1276 58.7181 57.5323 57.8848 56.2755C63.2266 53.336 68.5685 50.3751 73.9318 47.4568C77.1369 45.7101 80.342 44.0486 83.5685 42.1954C85.0731 41.3229 86.8624 41.0779 88.5471 41.5138L85.4702 43.6439C78.7395 48.1172 72.0087 52.6117 65.2566 57.0637C64.3378 57.6601 63.3335 58.1287 62.3719 58.6613C62.0514 57.8518 61.4104 58.0435 60.7907 58.15L60.8548 58.2565Z" fill="#46A6DD"/>
<path d="M228.483 36.8914L255.064 39.9375C255.833 39.9375 256.838 40.1292 256.218 41.2581C255.598 42.3871 255.833 44.8154 253.312 44.2829C249.231 43.4521 245.171 42.5788 241.09 41.7054L227.906 38.8085C227.201 38.6594 225.94 39.0428 226.133 37.7647C226.325 36.4866 227.265 36.6145 228.483 36.8914Z" fill="#48A7DD"/>
<path d="M71.4314 36.8701C72.5211 36.6358 73.3331 36.8701 73.5681 37.7009C73.8459 38.9577 72.6707 38.6381 72.051 38.7873L46.8587 44.1978C46.3949 44.23 45.9296 44.162 45.4947 43.9983C45.0597 43.8346 44.6654 43.5791 44.3387 43.2494C44.012 42.9196 43.7606 42.5234 43.6018 42.0878C43.443 41.6522 43.3805 41.1876 43.4186 40.7257C43.5681 40.1079 44.081 40.0014 44.5938 39.9588L71.4314 36.8701Z" fill="#48A7DD"/>
<path d="M80.9402 59.2151C78.0769 62.9215 74.2735 65.6055 71.0897 69.0776C70.7565 69.3467 70.4424 69.6385 70.1496 69.9509C67.5641 73.8064 63.7393 73.2739 59.4658 72.8692L75.7265 59.1299L80.9402 59.2151Z" fill="#273D74"/>
<path d="M224.103 59.1724L240.428 73.082C236.496 72.7625 233.184 74.1258 230.385 70.9519C226.816 66.7982 222.18 63.6456 218.782 59.3002L224.103 59.1724Z" fill="#273D74"/>
<path d="M203.462 73.0608C201.09 73.0608 199.06 73.0608 197.051 73.0608C196.197 73.0608 195.898 72.4644 195.556 71.9105C193.419 68.3958 191.133 64.8811 188.868 61.409C188.013 60.0671 188.312 59.8115 189.829 59.7049C190.98 59.4914 192.169 59.6414 193.23 60.1341C194.291 60.6267 195.171 61.4373 195.748 62.4528C197.992 66.0527 200.705 69.3544 203.462 73.0608Z" fill="#283E75"/>
<path d="M111.56 60.2163C109.017 64.2209 106.496 68.2042 103.996 72.2089C103.831 72.5028 103.583 72.7422 103.283 72.8974C102.983 73.0526 102.644 73.1168 102.308 73.0822H96.2822C99.6156 68.5877 102.5 64.3487 105.769 60.408C107.094 58.7039 109.445 60.2163 111.56 60.2163Z" fill="#283E75"/>
<path d="M202.286 59.7051L188.44 41.663C189.478 41.2513 190.625 41.2041 191.693 41.5294C192.761 41.8546 193.686 42.5328 194.316 43.4523C197.927 48.1811 201.837 52.6757 205.641 57.2555C205.986 57.5627 206.266 57.936 206.465 58.3531C206.663 58.7702 206.775 59.2227 206.795 59.6838L202.286 59.7051Z" fill="#46A6DD"/>
<path d="M92.7139 59.1937C96.5387 53.6767 101.261 48.8627 105.278 43.5161C105.916 42.5815 106.852 41.8897 107.935 41.5532C109.017 41.2168 110.182 41.2554 111.239 41.6628C107.201 46.9668 103.291 52.0578 99.4233 57.1914C98.7415 58.2426 97.7996 59.1009 96.6882 59.6836C95.3468 59.9893 93.9402 59.8159 92.7139 59.1937Z" fill="#46A6DD"/>
<path d="M224.102 59.1725H218.782C215.67 56.9159 212.805 54.3384 210.235 51.4827C206.944 48.1597 203.825 44.5811 200.961 41.3008C201.416 41.1557 201.898 41.1186 202.369 41.1926C202.84 41.2666 203.288 41.4495 203.675 41.7268C210.534 47.5633 217.607 53.0377 224.102 59.1725Z" fill="#46A6DD"/>
<path d="M80.9399 59.215H75.7476C79.5723 55.1252 84.2946 51.9087 88.3544 48.181C90.3202 46.4343 92.4356 44.858 94.3587 43.0687C94.9511 42.3555 95.7421 41.8333 96.632 41.5679C97.5219 41.3025 98.4707 41.3059 99.3587 41.5776C96.7518 44.2403 94.2091 47.1372 91.3886 49.7147C88.1324 53.1207 84.6409 56.2952 80.9399 59.215Z" fill="#46A6DD"/>
<path d="M72.6495 59.1725C70.5051 59.2743 68.356 59.1458 66.2393 58.7891C67.9014 57.2318 69.7621 55.8996 71.7734 54.827C77.9487 50.5668 84.188 46.5196 90.4059 42.4084C91.282 41.8333 92.094 40.9174 93.611 41.6203L72.6495 59.1725Z" fill="#46A6DD"/>
<path d="M233.398 58.7038C231.293 59.1533 229.135 59.3039 226.987 59.1512L206.282 41.6629C206.595 41.4266 206.982 41.3096 207.374 41.333C207.766 41.3565 208.137 41.5188 208.419 41.7907L233.034 58.1287C233.186 58.2998 233.308 58.494 233.398 58.7038Z" fill="#48A7DD"/>
<path d="M186.645 72.8265C180.235 73.572 180.235 73.572 177.906 68.2467C176.795 65.6906 175.769 63.1344 174.551 60.5996C178.654 59.3428 179.658 59.7262 181.56 63.2622C183.226 66.3722 184.872 69.5035 186.645 72.8265Z" fill="#273D74"/>
<path d="M89.6583 60.0669C87.9426 59.5813 86.181 59.2743 84.4019 59.151C84.4019 58.4906 84.8719 58.1072 85.2993 57.6812L100.556 43.0686C101.645 42.0461 102.692 40.7254 104.829 41.5775L89.6583 60.0669Z" fill="#48A7DD"/>
<path d="M215.406 59.1937L210.022 59.5985L194.787 41.6629C195.297 41.3951 195.877 41.2884 196.449 41.3569C197.022 41.4253 197.56 41.6658 197.992 42.0463L214.915 58.363C215.124 58.6106 215.29 58.8914 215.406 59.1937Z" fill="#46A6DD"/>
<path d="M120 59.4494L127.244 46.0935C127.949 44.8155 128.718 43.6013 129.38 42.2806C130.043 40.9599 131.068 41.1516 132.009 41.4073C132.949 41.6629 132.714 42.9409 132.457 43.5374C130.321 48.458 128.419 53.4424 126.047 58.1926C124.85 60.3014 122.393 58.576 120 59.4494Z" fill="#46A6DD"/>
<path d="M182.244 41.663C183.302 41.2428 184.48 41.2279 185.549 41.6212C186.618 42.0144 187.503 42.7881 188.034 43.7931C191.667 48.9054 195.577 53.8047 199.551 59.0448C196.709 59.6199 194.744 59.4282 193.141 56.9147C189.658 51.6107 186.026 46.7114 182.244 41.663Z" fill="#46A6DD"/>
<path d="M117.372 41.6629C116.411 43.0688 115.534 44.3681 114.616 45.6462C112.03 49.2461 109.274 52.7182 106.902 56.4246C106.304 57.594 105.285 58.4955 104.049 58.9495C102.814 59.4035 101.452 59.3767 100.235 58.8742C102.586 55.7643 104.851 52.7395 107.137 49.736C108.74 47.6059 110.47 45.6462 111.902 43.3457C112.443 42.4403 113.302 41.7671 114.313 41.4563C115.323 41.1455 116.413 41.2191 117.372 41.6629Z" fill="#46A6DD"/>
<path d="M202.287 59.705H206.795C207.052 59.705 207.393 59.705 207.522 59.8754L218.205 72.8691C214.295 73.7637 211.496 73.2312 209.402 69.61C207.216 66.1795 204.841 62.8727 202.287 59.705Z" fill="#273D74"/>
<path d="M176.346 59.1298C174.616 59.5984 173.718 58.6186 172.992 56.8719C171.368 52.8673 169.509 48.9691 167.842 44.9858C167.372 43.8569 166.325 42.2167 167.693 41.4711C169.06 40.7256 170.278 42.0463 171.047 43.6013C173.334 47.8615 175.748 52.2495 178.12 56.5524C179.616 59.1298 179.616 59.1298 176.346 59.1298Z" fill="#46A6DD"/>
<path d="M225.663 40.0867L239.573 42.9623C243.398 43.7718 247.244 44.5599 251.026 45.4759C251.859 45.6676 253.846 45.3268 253.163 46.9244C252.479 48.5219 252.03 50.6521 249.402 49.6722L232.308 43.2818L225.684 40.747L225.663 40.0867Z" fill="#48A7DD"/>
<path d="M73.8037 40.8109C65.8549 43.8143 57.9703 46.9456 49.9361 49.6934C47.372 50.5881 47.3934 47.5633 45.4917 46.1148L73.7396 40.1079L73.8037 40.8109Z" fill="#48A7DD"/>
<path d="M123.398 41.4286C119.616 47.2438 116.09 52.8247 112.393 58.2778C111.154 60.0884 109.103 58.7891 107.18 59.1512C107.79 57.6807 108.651 56.3261 109.722 55.1466C112.479 51.291 115.299 47.4568 118.077 43.6013C119.787 41.2369 119.787 41.2369 123.398 41.4286Z" fill="#46A6DD"/>
<path d="M192.65 58.7038C192.029 58.9845 191.358 59.14 190.676 59.1612C189.994 59.1824 189.315 59.0689 188.678 58.8274C188.04 58.5858 187.457 58.221 186.961 57.7537C186.466 57.2865 186.068 56.7262 185.791 56.1051C183.312 51.8448 180.385 47.5846 177.65 43.4522C177.244 42.8344 176.645 42.2806 176.731 41.4286C177.638 41.0771 178.646 41.0816 179.55 41.4414C180.454 41.8011 181.187 42.4892 181.603 43.367C185.107 48.5645 188.825 53.5276 192.65 58.7038Z" fill="#46A6DD"/>
<path d="M112.949 73.0609C115.086 68.8007 117.095 64.7535 119.359 60.9832C120.577 59.0447 122.928 60.4293 125.193 60.1524C123.355 64.4126 121.667 68.3534 119.958 72.2941C119.68 72.9544 119.167 73.0609 118.526 73.0609H112.949Z" fill="#253C73"/>
<path d="M125.043 73.0608C121.517 73.0608 121.517 73.0608 122.906 70.0147C124.295 66.9686 125.321 64.4125 126.539 61.6221C127.206 60.9259 128.065 60.4415 129.008 60.2293C129.95 60.0172 130.935 60.0867 131.838 60.4292C132.308 60.8552 131.987 61.3451 131.838 61.8138C130.684 65.1793 129.509 68.5449 128.398 71.9105C127.714 73.9128 126.069 72.72 125.043 73.0608Z" fill="#273D74"/>
<path d="M92.7141 59.1938C93.9569 59.7924 95.3715 59.9357 96.7098 59.5986C97.7568 60.1524 96.838 60.6423 96.5816 60.9618C93.8893 64.583 91.1685 68.1758 88.4192 71.7402C87.2012 73.3378 86.4106 73.4443 81.4106 72.7627C85.2995 68.119 88.9961 63.6458 92.7141 59.1938Z" fill="#273D74"/>
<path d="M167.5 60.5358C167.722 60.442 167.951 60.3637 168.184 60.3015C172.457 59.9181 172.457 59.9181 174.124 63.8162C175.406 66.7557 176.688 69.6953 178.141 73.0609H172.671C172.375 73.0758 172.083 72.9823 171.851 72.7979C171.619 72.6136 171.462 72.3511 171.41 72.0597C170.15 68.2042 168.803 64.37 167.5 60.5358Z" fill="#273D74"/>
<path d="M181.752 60.2376C182.283 59.9794 182.861 59.8337 183.451 59.8097C184.042 59.7857 184.63 59.8838 185.18 60.098C185.731 60.3122 186.23 60.6377 186.648 61.054C187.065 61.4703 187.392 61.9684 187.607 62.5168C189.53 65.9889 191.88 69.2906 194.017 72.6988C189.444 73.7851 188.889 73.5508 186.795 69.6314L181.752 60.2376Z" fill="#2A4076"/>
<path d="M105.406 73.1035C108.163 68.7154 110.641 64.583 113.227 60.7275C114.21 59.2151 115.876 59.9606 117.244 60.0245C118.034 60.0245 117.543 60.7701 117.244 61.1961C115.299 64.8599 113.547 68.6515 111.346 72.1662C110.107 74.2324 107.714 72.6987 105.406 73.1035Z" fill="#2A4076"/>
<path d="M71.6029 35.2726L49.9362 37.8287C48.1841 38.0204 46.4106 38.2335 44.6157 38.3826C42.8208 38.5317 41.8379 37.4666 42.0089 35.6347C42.0089 34.527 42.885 34.804 43.4832 34.804H71.5174L71.6029 35.2726Z" fill="#46A6DD"/>
<path d="M227.415 34.676C237.5 34.676 246.838 34.676 256.175 34.676C257.628 34.676 257.65 35.4216 257.5 36.4653C257.35 37.5091 257.5 38.5954 255.641 38.4037C248.632 37.5304 241.603 36.8061 234.594 35.9328C232.153 35.8568 229.735 35.4337 227.415 34.676Z" fill="#46A6DD"/>
<path d="M171.88 41.6629C172.173 41.5021 172.496 41.4042 172.829 41.3755C173.162 41.3469 173.498 41.3881 173.814 41.4964C174.13 41.6048 174.419 41.7779 174.664 42.0047C174.909 42.2315 175.103 42.5069 175.235 42.8131C178.12 47.4142 181.175 51.9087 184.06 56.4885C184.53 57.234 185.833 57.937 184.936 59.0446C184.038 60.1523 181.325 59.0446 180.662 57.9583C179.615 56.1264 178.526 54.2519 177.607 52.3774L171.88 41.6629Z" fill="#48A7DD"/>
<path d="M209.978 72.7839C208.836 73.2926 207.544 73.356 206.358 72.9617C205.171 72.5673 204.176 71.7439 203.568 70.6538C201.26 67.0326 198.525 63.6883 195.918 60.1523C199.722 59.3429 199.722 59.3429 201.923 62.2824L209.978 72.7839Z" fill="#283E75"/>
<path d="M89.4663 73.1248C92.9065 68.5877 95.8766 64.6043 98.9321 60.621C100.257 58.853 102.009 60.0459 104.124 59.5773C100.748 64.157 97.7142 68.3534 94.5945 72.358C93.4407 73.8491 91.6031 72.8479 89.4663 73.1248Z" fill="#283E75"/>
<path d="M114.167 58.7037L124.851 42.1314C125.556 41.045 126.56 41.2793 127.778 41.5989C124.744 47.1585 121.774 52.6542 118.74 58.1499C117.671 60.0883 115.812 58.7037 114.466 59.2575L114.167 58.7037Z" fill="#48A7DD"/>
<path d="M73.3975 24.771C71.2607 24.771 68.9957 24.771 66.7735 24.771C65.2992 24.771 65.171 24.0894 65.1496 22.9178C65.1282 21.7463 65.6197 21.3416 66.7949 21.3629C71.218 21.3629 75.6197 21.3629 80.0428 21.3629C81.4316 21.3629 81.4957 22.0232 81.4744 23.0669C81.453 24.1107 81.4744 24.8563 80.0214 24.7923C77.8205 24.6219 75.6197 24.771 73.3975 24.771Z" fill="#2E4379"/>
<path d="M132.415 49.097V57.6175C132.415 58.2991 132.415 59.0873 131.453 59.1086C130.29 59.2665 129.106 59.1941 127.97 58.8955C127.287 58.5973 128.141 57.5536 128.419 56.9145C129.552 54.2306 130.748 51.5892 131.945 48.9479L132.415 49.097Z" fill="#53A7DC"/>
<path d="M167.522 48.3728C169.081 51.9088 170.342 54.7632 171.645 57.7666C172.137 58.8104 171.774 59.0447 170.727 59.1512C167.586 59.4494 167.351 59.279 167.351 56.2329C167.351 54.1028 167.351 51.8236 167.351 49.6083C167.372 49.4379 167.415 49.2888 167.522 48.3728Z" fill="#46A6DD"/>
<path d="M131.987 66.5426C132.479 68.4171 132.756 70.0573 133.355 71.6549C133.526 72.0809 133.91 72.8052 133.355 72.933C132.361 73.1355 131.336 73.1355 130.342 72.933C129.701 72.8052 130.064 72.1022 130.214 71.6549C130.748 69.9508 131.367 68.2467 131.987 66.5426Z" fill="#2E4379"/>
<path d="M165.898 72.8691C166.734 70.6757 167.287 68.3852 167.543 66.0527C168.077 67.4586 168.526 68.5237 168.868 69.6526C169.936 73.3164 171.218 73.2738 165.898 72.8691Z" fill="#2E4379"/>
<path d="M236.987 58.7038C237.521 57.9157 238.291 58.0009 239.124 58.1926C238.569 59.1298 237.692 58.7038 236.987 58.7038Z" fill="#FEFEFE"/>
<path d="M60.8335 58.1927C61.4532 58.0862 62.0942 57.8945 62.4147 58.7039C61.8591 58.7039 61.1326 59.0447 60.8335 58.1927Z" fill="#FEFEFE"/>
<path d="M185.299 114.247C186.731 113.97 186.966 112.82 187.649 112.117C188.013 111.734 188.248 110.903 188.996 111.414C189.743 111.925 189.145 112.373 188.867 112.756C188.079 113.86 187.23 114.92 186.325 115.93C186.058 116.329 185.648 116.611 185.179 116.718C184.71 116.825 184.218 116.749 183.803 116.505C182.842 115.887 182.884 115.014 183.141 114.034C184.294 110.207 185.962 106.552 188.098 103.171C189.377 100.768 191.02 98.5765 192.97 96.6738C193.739 95.9709 194.637 95.2254 195.684 95.9496C196.731 96.6738 196.346 97.8241 195.94 98.74C193.858 103.04 190.904 106.862 187.265 109.966C186.582 110.438 186.04 111.085 185.694 111.838C185.348 112.591 185.212 113.424 185.299 114.247ZM188.312 106.472C191.105 104.313 193.146 101.332 194.145 97.9519C191.498 100.245 189.489 103.179 188.312 106.472Z" fill="#DF9B5D"/>
<path d="M65.32 114.077C64.7217 114.652 64.3798 114.993 63.9952 115.312C63.1832 116.037 62.3071 117.08 61.1747 116.377C60.0422 115.675 60.3841 114.12 60.8755 112.927C61.6104 111.203 62.6367 109.618 63.9097 108.24C64.4012 107.687 65.0208 106.834 65.7473 107.41C66.4738 107.985 65.7473 108.773 65.2986 109.327C64.0782 110.595 63.1391 112.104 62.5422 113.757C64.0379 113.459 64.6789 112.352 65.3627 111.627C66.0465 110.903 66.9653 109.646 67.7986 108.688C68.2473 108.176 68.8029 107.58 69.5294 108.155C70.2559 108.73 69.5294 109.242 69.3798 109.731C68.367 111.236 67.7028 112.945 67.4353 114.737C69.2251 113.484 70.5179 111.645 71.0892 109.54C71.367 108.816 71.4738 108.049 71.7302 107.41C71.9866 106.771 72.2858 106.259 73.0123 106.494C73.261 106.585 73.4634 106.77 73.5755 107.01C73.6876 107.249 73.7002 107.523 73.6106 107.772C72.8941 111.297 70.911 114.441 68.0336 116.612C66.0037 117.826 65.555 115.951 65.32 114.077Z" fill="#DF9D61"/>
<path d="M219.081 112.671C217.692 113.417 217.265 115.078 215.983 115.951C215.128 116.527 214.252 117.102 213.184 116.569C212.734 116.311 212.382 115.912 212.181 115.435C211.98 114.958 211.942 114.429 212.072 113.928C212.295 112.158 212.831 110.442 213.654 108.858C214.017 108.07 214.765 107.346 213.547 106.494C212.842 106.025 213.547 105.237 214.038 105.216C216.025 105.216 216.624 103.554 217.628 102.34C218.269 101.573 218.739 99.8264 220 100.615C221.26 101.403 219.401 102.297 219.401 103.277C219.872 103.788 220.491 103.277 221.025 103.49C221.56 103.703 221.923 103.49 222.008 104.108C222.094 104.726 221.602 105.003 221.09 105.045C216.282 105.365 215.448 109.305 214.231 112.714C214.017 113.353 213.654 114.183 214.359 114.567C215.064 114.95 215.748 114.247 216.239 113.651C216.731 113.054 217.03 112.564 217.436 112.011C217.842 111.457 218.013 111.052 218.589 111.201C219.166 111.35 218.782 112.245 219.06 112.714L219.081 112.671Z" fill="#DF9B5D"/>
<path d="M136.218 113.417C135.626 114.455 134.834 115.367 133.888 116.101C133.575 116.479 133.14 116.738 132.657 116.833C132.174 116.929 131.673 116.855 131.238 116.625C130.803 116.394 130.462 116.021 130.271 115.568C130.081 115.116 130.053 114.612 130.192 114.141C130.427 112.735 130.918 111.372 131.26 109.881C131.602 108.39 133.247 107.559 131.602 106.11C131.282 105.812 131.602 105.173 132.115 105.152C134.252 105.152 134.807 103.341 135.897 102.084C136.495 101.36 137.008 99.8052 138.034 100.508C139.059 101.211 137.435 102.148 137.457 103.213C137.628 103.661 138.119 103.341 138.461 103.405C138.803 103.469 140 103.107 140.064 104.151C140.128 105.194 139.294 104.981 138.717 105.045C134.273 105.471 133.547 109.114 132.307 112.352C132.072 113.012 131.581 113.97 132.457 114.482C133.333 114.993 133.739 113.928 134.294 113.459C135.17 112.756 135.17 110.924 136.965 111.329C137.016 111.711 136.974 112.1 136.844 112.463C136.714 112.826 136.499 113.153 136.218 113.417Z" fill="#DF9B5D"/>
<path d="M235.406 112.671C233.888 113.608 233.568 114.801 232.841 115.909C232.478 116.377 232.115 116.953 231.41 116.633C230.705 116.314 230.812 115.653 231.025 115.099C231.989 112.656 233.221 110.327 234.7 108.155C234.846 107.968 235.019 107.802 235.213 107.665C236.923 109.369 238.333 107.218 239.829 107.324C240.897 107.324 240.512 108.475 240.064 109.135C239.337 110.264 238.504 111.265 237.799 112.501C237.367 113.133 237.088 113.856 236.984 114.614C236.88 115.372 236.954 116.143 237.2 116.867C237.414 117.506 237.863 118.252 236.859 118.529C235.854 118.806 235.726 118.039 235.384 117.421C234.615 115.93 235.406 114.546 235.406 112.671Z" fill="#DF9B5D"/>
<path d="M210.385 108.432C210.62 109.817 209.551 110.797 209.209 112.011C208.868 113.225 208.205 114.567 209.38 115.802C209.829 116.25 210.192 116.761 209.551 117.293C209.419 117.408 209.261 117.49 209.091 117.532C208.921 117.574 208.743 117.576 208.572 117.536C208.401 117.497 208.242 117.418 208.107 117.305C207.973 117.193 207.868 117.05 207.799 116.889C207.051 115.27 206.453 115.462 205.128 116.463C203.803 117.464 202.521 116.804 202.244 115.014C202.294 113.194 202.822 111.418 203.774 109.863C204.726 108.309 206.069 107.03 207.671 106.153C209.53 105.557 210.449 106.323 210.385 108.432ZM204.231 112.948C204.231 113.63 203.953 114.269 204.466 114.524C204.979 114.78 205.598 114.269 205.876 113.8C206.752 112.373 207.564 110.882 208.376 109.412C208.59 109.007 209.103 108.517 208.376 108.134C207.65 107.751 207.393 108.134 206.987 108.496C205.658 109.685 204.7 111.23 204.231 112.948Z" fill="#DF9B5D"/>
<path d="M128.483 108.368C128.718 109.391 128.013 110.221 127.692 111.159C127.115 112.778 125.961 114.439 127.692 116.037C127.78 116.1 127.852 116.183 127.902 116.279C127.951 116.375 127.977 116.482 127.977 116.59C127.977 116.699 127.951 116.805 127.902 116.902C127.852 116.998 127.78 117.081 127.692 117.144C127.563 117.259 127.411 117.346 127.247 117.4C127.082 117.454 126.909 117.474 126.736 117.458C126.564 117.442 126.396 117.391 126.245 117.307C126.093 117.224 125.96 117.111 125.855 116.974C125 115.547 124.359 115.483 122.991 116.527C121.624 117.57 120.299 116.527 120.149 114.609C120.301 112.884 120.868 111.22 121.801 109.759C122.735 108.298 124.008 107.083 125.513 106.217C127.564 105.535 128.525 106.238 128.483 108.368ZM122.308 113.054C122.308 113.672 122.094 114.29 122.607 114.546C123.12 114.801 123.739 114.269 124.017 113.8C124.893 112.373 125.684 110.882 126.496 109.412C126.709 108.986 127.201 108.496 126.496 108.155C126.3 108.097 126.093 108.085 125.893 108.122C125.692 108.159 125.503 108.244 125.342 108.368C123.87 109.582 122.811 111.218 122.308 113.054Z" fill="#DF9B5D"/>
<path d="M136.218 113.417C136.541 113.168 136.796 112.843 136.96 112.471C137.125 112.099 137.193 111.692 137.158 111.286C138.654 110.179 139.295 108.283 140.983 107.303C142.008 106.685 143.119 105.833 144.209 106.771C145.299 107.708 144.444 109.114 143.761 110.158C142.88 111.41 141.676 112.404 140.278 113.033C139.743 113.267 138.996 113.438 139.337 114.226C139.679 115.014 140.32 114.78 140.897 114.695C141.982 114.444 142.965 113.873 143.718 113.054C144.444 112.394 145 111.478 146.09 111.201C146.09 113.331 143.397 115.738 140.812 116.527C137.842 117.506 137.265 115.142 136.218 113.417ZM140.491 111.286C141.115 111.042 141.661 110.633 142.071 110.105C142.481 109.576 142.74 108.946 142.82 108.283C142.223 108.534 141.681 108.9 141.227 109.361C140.772 109.822 140.413 110.368 140.171 110.967C140.064 111.095 139.872 111.286 139.914 111.35C139.957 111.414 140.235 111.542 140.427 111.35L140.491 111.286Z" fill="#DF9D61"/>
<path d="M111.538 110.797C109.743 111.052 108.162 113.502 106.046 111.286C105.619 110.839 105.042 111.691 104.658 112.096C103.479 113.431 102.467 114.905 101.645 116.484C101.346 116.974 100.897 117.549 100.213 117.144C99.5294 116.74 99.8072 116.25 99.9995 115.76C100.826 113.028 102.112 110.457 103.803 108.155C104.358 107.474 105.256 105.706 105.94 108.155C106.175 108.943 106.581 108.155 106.837 108.155C107.093 108.155 107.692 107.58 108.119 107.324C108.546 107.069 109.358 106.281 109.914 106.898C110.47 107.516 109.636 108.155 109.209 108.688C108.782 109.22 108.397 109.327 108.44 109.923C109.508 111.201 110.897 107.644 111.858 110.179L111.538 110.797Z" fill="#DF9D61"/>
<path d="M82.2861 111.074C81.7092 114.162 77.5853 117.23 75.1066 116.718C74.4885 116.659 73.9184 116.36 73.5189 115.886C73.1194 115.412 72.9222 114.801 72.9699 114.184C73.1133 112.577 73.6758 111.036 74.6017 109.713C75.5276 108.39 76.7845 107.332 78.2477 106.643C78.9955 106.43 79.7861 106.302 80.3844 107.048C80.5831 107.328 80.6897 107.663 80.6897 108.006C80.6897 108.35 80.5831 108.684 80.3844 108.965C79.5438 110.748 78.1091 112.186 76.3246 113.033C75.769 113.31 74.7861 113.481 75.2776 114.397C75.769 115.313 76.4955 114.887 77.1579 114.695C78.5719 114.112 79.8144 113.181 80.769 111.99C81.2472 111.641 81.7548 111.335 82.2861 111.074ZM76.4101 111.351C77.023 111.145 77.5679 110.777 77.986 110.285C78.404 109.793 78.6792 109.197 78.7818 108.56C78.1656 108.718 77.5986 109.027 77.1322 109.458C76.6659 109.89 76.3148 110.43 76.1109 111.031C76.1109 111.159 75.8331 111.351 75.8545 111.393C75.8759 111.436 76.2391 111.521 76.4101 111.351Z" fill="#DF9D61"/>
<path d="M111.538 110.797L111.901 110.03C112.919 108.78 114.131 107.702 115.491 106.835C115.814 106.515 116.251 106.337 116.706 106.339C117.161 106.341 117.596 106.523 117.916 106.845C118.236 107.167 118.415 107.603 118.413 108.056C118.411 108.51 118.229 108.944 117.906 109.263C117.005 110.915 115.597 112.237 113.888 113.033C113.418 113.267 112.521 113.331 112.799 114.141C113.076 114.95 113.846 114.886 114.529 114.759C115.764 114.413 116.875 113.726 117.735 112.778C118.376 112.266 118.717 111.372 119.722 111.393C119.401 114.183 114.807 117.443 112.307 116.654C111.681 116.476 111.15 116.058 110.83 115.492C110.51 114.926 110.427 114.257 110.598 113.63C110.619 112.613 110.947 111.626 111.538 110.797ZM113.055 111.904C114.893 111.073 115.961 110.392 116.282 108.56C114.572 109.071 113.931 110.285 113.055 111.904Z" fill="#DF9B5D"/>
<path d="M179.102 111.223C176.709 112.458 174.102 113.353 172.564 115.845C172.444 116.075 172.278 116.278 172.076 116.441C171.873 116.604 171.639 116.723 171.388 116.791C171.137 116.859 170.874 116.875 170.617 116.837C170.36 116.798 170.113 116.707 169.893 116.569C169.497 116.241 169.222 115.791 169.11 115.29C168.997 114.789 169.055 114.265 169.273 113.8C170.004 111.724 170.927 109.72 172.03 107.814C172.265 107.346 172.692 106.877 173.226 107.175C173.761 107.474 173.59 108.091 173.419 108.56C172.438 110.418 171.636 112.365 171.026 114.375C173.013 113.97 173.419 112.437 174.102 111.201C174.219 110.886 174.291 110.556 174.316 110.221C174.637 108.965 174.444 107.324 176.239 107.048C177.115 106.92 177.222 107.58 176.752 110.456C177.692 110.988 178.184 109.114 179.188 109.987L179.102 111.223Z" fill="#DF9B5D"/>
<path d="M163.183 111.563C162.813 112.881 162.116 114.085 161.156 115.064C160.197 116.043 159.005 116.766 157.692 117.166C157.269 117.238 156.835 117.201 156.431 117.059C156.026 116.918 155.664 116.675 155.38 116.356C155.095 116.036 154.897 115.649 154.805 115.231C154.712 114.814 154.728 114.38 154.85 113.97C155.168 112.513 155.771 111.132 156.626 109.908C157.48 108.683 158.569 107.639 159.829 106.834C160.641 106.281 161.688 105.897 162.371 106.834C163.055 107.772 162.628 109.263 161.816 110.307C161.004 111.35 160.47 111.563 159.807 110.136C159.508 109.497 158.846 110.136 158.611 110.434C157.799 111.84 155.833 113.502 157.158 114.822C158.483 116.143 159.85 114.098 161.025 113.161C161.666 112.607 161.965 111.67 163.183 111.563ZM160.384 108.773L160.235 108.922L160.384 109.092L160.555 108.858L160.384 108.773Z" fill="#DF9B5D"/>
<path d="M99.7006 111.627C99.1685 112.893 98.3765 114.035 97.3755 114.977C96.3746 115.92 95.1869 116.644 93.8887 117.102C93.4729 117.219 93.0333 117.224 92.6149 117.117C92.1965 117.009 91.8143 116.792 91.5077 116.489C91.201 116.185 90.9809 115.806 90.8699 115.389C90.7588 114.973 90.7609 114.535 90.8759 114.12C91.1832 112.561 91.8256 111.088 92.7588 109.801C93.692 108.514 94.894 107.444 96.2818 106.664C97.0083 106.196 98.034 105.897 98.5682 106.835C98.8604 107.41 98.9518 108.066 98.8279 108.698C98.7041 109.331 98.372 109.905 97.8844 110.328C97.2647 111.031 96.6237 111.627 96.0254 110.328C95.7049 109.582 95.2135 109.966 94.8288 110.328C94.6258 110.486 94.4644 110.69 94.3588 110.924C93.8032 112.266 92.0083 113.757 93.44 114.993C94.8716 116.228 95.8972 114.205 96.9656 113.374C97.6066 112.756 97.9271 111.691 99.7006 111.627ZM96.3887 108.773C96.3887 108.773 96.2605 108.879 96.2605 108.922C96.2605 108.965 96.3673 108.922 96.41 109.092L96.581 108.858L96.3887 108.773Z" fill="#DF9B5D"/>
<path d="M231.795 108.155C231.171 111.252 229.578 114.071 227.243 116.207C226.915 116.542 226.494 116.774 226.034 116.872C225.574 116.971 225.096 116.932 224.658 116.761C223.59 116.356 223.547 115.312 223.632 114.396C223.765 112.705 224.322 111.073 225.251 109.652C226.181 108.23 227.454 107.064 228.953 106.259C230.662 105.322 231.837 106.025 231.795 108.155ZM230.021 108.347C228.916 108.699 227.921 109.329 227.131 110.176C226.342 111.023 225.784 112.058 225.513 113.182C225.363 113.672 225.171 114.226 225.684 114.567C225.81 114.647 225.952 114.698 226.1 114.717C226.248 114.737 226.398 114.724 226.541 114.679C226.683 114.634 226.814 114.559 226.924 114.459C227.035 114.359 227.122 114.236 227.179 114.098C228.184 112.224 229.081 110.285 230.021 108.368V108.347Z" fill="#DF9B5D"/>
<path d="M199.124 108.794C198.847 108.683 198.561 108.598 198.269 108.539C197.457 108.539 196.303 108.539 196.41 107.388C196.517 106.238 197.585 106.728 198.29 106.686L201.602 106.515C202.179 106.515 202.863 106.366 203.119 107.09C203.376 107.815 202.863 108.219 202.393 108.581C200.24 110.107 198.35 111.97 196.795 114.098C197.949 114.098 198.675 114.098 199.402 114.226C200.128 114.354 200.619 114.46 200.598 115.227C200.577 115.994 199.957 116.186 199.316 116.079C198.046 115.905 196.753 116.081 195.577 116.591C194.936 116.868 194.231 117.017 193.739 116.292C193.248 115.568 193.739 115.142 194.102 114.673C195.619 112.586 197.298 110.62 199.124 108.794Z" fill="#DF9D61"/>
<path d="M179.102 111.223V109.987C180.897 109.987 180.748 108.134 181.731 107.388C182.179 107.069 182.564 106.387 183.226 106.92C183.889 107.452 183.355 107.857 183.226 108.262C181.641 110.749 180.343 113.407 179.359 116.186C179.167 116.718 178.953 117.421 178.141 117.102C177.329 116.782 177.564 116.122 177.735 115.547C178.141 114.098 178.632 112.671 179.102 111.223Z" fill="#DF9D61"/>
<path d="M219.06 112.714C220.598 111.265 221.197 109.135 222.521 107.58C222.927 107.133 223.376 106.494 223.974 106.898C224.573 107.303 224.21 107.985 223.974 108.496C222.407 110.9 221.164 113.5 220.278 116.228C220.086 116.803 219.808 117.442 219.039 117.123C218.269 116.803 218.504 116.186 218.611 115.568C218.782 114.609 219.573 113.757 219.167 112.671L219.06 112.714Z" fill="#DF9D61"/>
<path d="M195.277 107.58C195.199 107.806 195.106 108.027 195 108.24C193.404 110.758 192.092 113.444 191.089 116.25C190.918 116.718 190.705 117.315 190.064 117.166C189.423 117.017 189.294 116.314 189.465 115.717C190.328 112.675 191.78 109.831 193.739 107.346C194.026 107.055 194.402 106.867 194.807 106.813C195.085 106.771 195.277 107.154 195.277 107.58Z" fill="#DF9D61"/>
<path d="M168.932 106.771C169.786 107.111 169.573 107.75 169.274 108.219C167.661 110.798 166.342 113.549 165.342 116.42C165.192 116.91 164.85 117.357 164.209 117.102C164.016 117.005 163.866 116.841 163.787 116.64C163.708 116.44 163.706 116.217 163.782 116.015C164.546 112.723 166.092 109.662 168.291 107.09C168.419 106.92 168.718 106.856 168.932 106.771Z" fill="#DF9D61"/>
<path d="M227.692 101.765C227.623 102.274 227.4 102.751 227.053 103.132C226.706 103.512 226.25 103.778 225.748 103.895C225.62 103.919 225.488 103.911 225.364 103.872C225.24 103.832 225.128 103.764 225.037 103.671C224.946 103.578 224.88 103.465 224.843 103.34C224.807 103.216 224.802 103.084 224.829 102.958C224.825 102.434 225.015 101.928 225.362 101.535C225.708 101.142 226.188 100.89 226.709 100.827C227.308 100.572 227.564 101.104 227.692 101.765Z" fill="#DF9D61"/>
<path d="M196.902 103.767C196.197 103.767 195.748 103.469 195.748 102.873C195.771 102.367 195.961 101.883 196.29 101.497C196.619 101.112 197.067 100.846 197.564 100.742C198.163 100.572 198.526 101.041 198.547 101.594C198.569 102.745 197.692 103.299 196.902 103.767Z" fill="#DF9D61"/>
<path d="M184.978 103.895C184.337 103.895 183.931 103.533 183.952 102.958C183.981 102.447 184.179 101.961 184.516 101.575C184.852 101.189 185.308 100.926 185.811 100.828C185.937 100.796 186.069 100.797 186.194 100.83C186.32 100.864 186.435 100.928 186.528 101.017C186.622 101.106 186.692 101.218 186.731 101.341C186.77 101.464 186.777 101.595 186.752 101.722C186.72 102.224 186.533 102.703 186.215 103.092C185.897 103.482 185.464 103.763 184.978 103.895Z" fill="#DF9D61"/>
<path d="M170.021 102.617C170.146 102.12 170.415 101.67 170.795 101.326C171.176 100.981 171.65 100.756 172.158 100.678C172.287 100.68 172.413 100.711 172.528 100.769C172.643 100.828 172.742 100.912 172.819 101.015C172.895 101.118 172.947 101.238 172.969 101.364C172.992 101.49 172.985 101.62 172.948 101.744C172.88 102.27 172.628 102.756 172.238 103.118C171.848 103.48 171.344 103.694 170.812 103.725C170.299 103.746 170 103.256 170.021 102.617Z" fill="#DF9D61"/>
<path d="M140.427 111.35C140.235 111.542 140.042 111.734 139.85 111.35C139.658 110.967 140 111.095 140.107 110.967L140.427 111.35Z" fill="#F8F8FA"/>
<path d="M76.4103 111.35C76.2393 111.521 76.047 111.713 75.8547 111.35C75.6624 110.988 76.0257 111.116 76.1111 110.988L76.4103 111.35Z" fill="#F8F8FA"/>
</svg>
