<svg id="delete_forever-24px" xmlns="http://www.w3.org/2000/svg" width="24" height="24" viewBox="0 0 24 24">
  <path id="Path_76" data-name="Path 76" d="M0,0H24V24H0Z" fill="none"/>
  <path id="Path_77" data-name="Path 77" d="M6,19a2.006,2.006,0,0,0,2,2h8a2.006,2.006,0,0,0,2-2V9a2.006,2.006,0,0,0-2-2H8A2.006,2.006,0,0,0,6,9Zm3.17-7.83a1,1,0,0,1,1.41,0L12,12.59l1.42-1.42a1,1,0,0,1,1.41,1.41L13.41,14l1.42,1.42a1,1,0,0,1-1.41,1.41L12,15.41l-1.42,1.42a1,1,0,0,1-1.41-1.41L10.59,14,9.17,12.58A1,1,0,0,1,9.17,11.17ZM15.5,4l-.71-.71a1.009,1.009,0,0,0-.7-.29H9.91a1.009,1.009,0,0,0-.7.29L8.5,4H6A1,1,0,0,0,6,6H18a1,1,0,0,0,0-2Z" fill="#fff"/>
</svg>
